<mxfile host="app.diagrams.net" agent="Mozilla/5.0 (Macintosh; Intel Mac OS X 10_15_7) AppleWebKit/537.36 (KHTML, like Gecko) Chrome/138.0.0.0 Safari/537.36" version="28.0.4">
  <diagram name="第 1 页" id="Wq5N2RPsZzHA_6-gMuT5">
    <mxGraphModel dx="2085" dy="866" grid="1" gridSize="10" guides="1" tooltips="1" connect="1" arrows="1" fold="1" page="1" pageScale="1" pageWidth="827" pageHeight="1169" math="0" shadow="0">
      <root>
        <mxCell id="0" />
        <mxCell id="1" parent="0" />
        <mxCell id="fAqofK01B5dOXCcF90-Q-1" value="&lt;font style=&quot;font-size: 24px;&quot;&gt;&lt;b&gt;平台&lt;/b&gt;&lt;/font&gt;" style="ellipse;whiteSpace=wrap;html=1;strokeWidth=2;fillWeight=2;hachureGap=8;fillColor=#dae8fc;fillStyle=dots;sketch=1;strokeColor=#6c8ebf;" vertex="1" parent="1">
          <mxGeometry x="160" y="30" width="120" height="110" as="geometry" />
        </mxCell>
        <mxCell id="fAqofK01B5dOXCcF90-Q-2" value="&lt;font style=&quot;font-size: 24px;&quot;&gt;&lt;b&gt;客户&lt;/b&gt;&lt;/font&gt;" style="ellipse;whiteSpace=wrap;html=1;strokeWidth=2;fillWeight=2;hachureGap=8;fillColor=#FF7A95;fillStyle=dots;sketch=1;strokeColor=#FF6666;" vertex="1" parent="1">
          <mxGeometry y="260" width="120" height="110" as="geometry" />
        </mxCell>
        <mxCell id="fAqofK01B5dOXCcF90-Q-3" value="&lt;font style=&quot;font-size: 24px;&quot;&gt;&lt;b&gt;用户&lt;/b&gt;&lt;/font&gt;" style="ellipse;whiteSpace=wrap;html=1;strokeWidth=2;fillWeight=2;hachureGap=8;fillColor=#ffe6cc;fillStyle=dots;sketch=1;strokeColor=#d79b00;" vertex="1" parent="1">
          <mxGeometry x="300" y="260" width="120" height="110" as="geometry" />
        </mxCell>
        <mxCell id="fAqofK01B5dOXCcF90-Q-4" value="" style="endArrow=classic;html=1;rounded=0;strokeWidth=2;" edge="1" parent="1">
          <mxGeometry width="50" height="50" relative="1" as="geometry">
            <mxPoint x="90" y="270" as="sourcePoint" />
            <mxPoint x="190" y="130" as="targetPoint" />
          </mxGeometry>
        </mxCell>
        <mxCell id="fAqofK01B5dOXCcF90-Q-5" value="" style="endArrow=classic;html=1;rounded=0;strokeWidth=2;entryX=1;entryY=0.5;entryDx=0;entryDy=0;" edge="1" parent="1" target="fAqofK01B5dOXCcF90-Q-2">
          <mxGeometry width="50" height="50" relative="1" as="geometry">
            <mxPoint x="300" y="315" as="sourcePoint" />
            <mxPoint x="400" y="180" as="targetPoint" />
          </mxGeometry>
        </mxCell>
        <mxCell id="fAqofK01B5dOXCcF90-Q-6" value="商品付费" style="text;html=1;strokeColor=none;fillColor=none;align=center;verticalAlign=middle;whiteSpace=wrap;rounded=0;" vertex="1" parent="1">
          <mxGeometry x="183.5" y="320" width="60" height="30" as="geometry" />
        </mxCell>
        <mxCell id="fAqofK01B5dOXCcF90-Q-7" value="广告付费" style="text;html=1;strokeColor=none;fillColor=none;align=center;verticalAlign=middle;whiteSpace=wrap;rounded=0;rotation=-55;" vertex="1" parent="1">
          <mxGeometry x="80" y="180" width="60" height="30" as="geometry" />
        </mxCell>
        <mxCell id="fAqofK01B5dOXCcF90-Q-8" value="&lt;b&gt;&lt;font style=&quot;font-size: 14px;&quot;&gt;OCPX机制&lt;/font&gt;&lt;/b&gt;" style="text;html=1;strokeColor=none;fillColor=none;align=center;verticalAlign=middle;whiteSpace=wrap;rounded=0;" vertex="1" parent="1">
          <mxGeometry x="10" y="50" width="70" height="30" as="geometry" />
        </mxCell>
        <mxCell id="fAqofK01B5dOXCcF90-Q-9" value="&lt;font style=&quot;font-size: 24px;&quot;&gt;&lt;b&gt;平台&lt;/b&gt;&lt;/font&gt;" style="ellipse;whiteSpace=wrap;html=1;strokeWidth=2;fillWeight=2;hachureGap=8;fillColor=#dae8fc;fillStyle=dots;sketch=1;strokeColor=#6c8ebf;" vertex="1" parent="1">
          <mxGeometry x="665" y="30" width="120" height="110" as="geometry" />
        </mxCell>
        <mxCell id="fAqofK01B5dOXCcF90-Q-10" value="&lt;font style=&quot;font-size: 24px;&quot;&gt;&lt;b&gt;客户&lt;/b&gt;&lt;/font&gt;" style="ellipse;whiteSpace=wrap;html=1;strokeWidth=2;fillWeight=2;hachureGap=8;fillColor=#FF7A95;fillStyle=dots;sketch=1;strokeColor=#FF6666;" vertex="1" parent="1">
          <mxGeometry x="510" y="260" width="120" height="110" as="geometry" />
        </mxCell>
        <mxCell id="fAqofK01B5dOXCcF90-Q-11" value="&lt;font style=&quot;font-size: 24px;&quot;&gt;&lt;b&gt;用户&lt;/b&gt;&lt;/font&gt;" style="ellipse;whiteSpace=wrap;html=1;strokeWidth=2;fillWeight=2;hachureGap=8;fillColor=#ffe6cc;fillStyle=dots;sketch=1;strokeColor=#d79b00;" vertex="1" parent="1">
          <mxGeometry x="810" y="260" width="120" height="110" as="geometry" />
        </mxCell>
        <mxCell id="fAqofK01B5dOXCcF90-Q-12" value="" style="endArrow=classic;html=1;rounded=0;strokeWidth=2;" edge="1" parent="1">
          <mxGeometry width="50" height="50" relative="1" as="geometry">
            <mxPoint x="600" y="270" as="sourcePoint" />
            <mxPoint x="700" y="130" as="targetPoint" />
          </mxGeometry>
        </mxCell>
        <mxCell id="fAqofK01B5dOXCcF90-Q-13" value="" style="endArrow=classic;html=1;rounded=0;strokeWidth=2;entryX=1;entryY=0.5;entryDx=0;entryDy=0;" edge="1" parent="1" target="fAqofK01B5dOXCcF90-Q-10">
          <mxGeometry width="50" height="50" relative="1" as="geometry">
            <mxPoint x="810" y="315" as="sourcePoint" />
            <mxPoint x="910" y="180" as="targetPoint" />
          </mxGeometry>
        </mxCell>
        <mxCell id="fAqofK01B5dOXCcF90-Q-14" value="商品付费" style="text;html=1;strokeColor=none;fillColor=none;align=center;verticalAlign=middle;whiteSpace=wrap;rounded=0;" vertex="1" parent="1">
          <mxGeometry x="693.5" y="320" width="60" height="30" as="geometry" />
        </mxCell>
        <mxCell id="fAqofK01B5dOXCcF90-Q-15" value="竞价费+券金q" style="text;html=1;strokeColor=none;fillColor=none;align=center;verticalAlign=middle;whiteSpace=wrap;rounded=0;rotation=-55;" vertex="1" parent="1">
          <mxGeometry x="585.74" y="171.81" width="80" height="30" as="geometry" />
        </mxCell>
        <mxCell id="fAqofK01B5dOXCcF90-Q-16" value="&lt;b&gt;&lt;font style=&quot;font-size: 14px;&quot;&gt;QCPX机制&lt;/font&gt;&lt;/b&gt;" style="text;html=1;strokeColor=none;fillColor=none;align=center;verticalAlign=middle;whiteSpace=wrap;rounded=0;" vertex="1" parent="1">
          <mxGeometry x="520" y="50" width="70" height="30" as="geometry" />
        </mxCell>
        <mxCell id="fAqofK01B5dOXCcF90-Q-17" value="" style="endArrow=classic;html=1;rounded=0;strokeWidth=2;" edge="1" parent="1" source="fAqofK01B5dOXCcF90-Q-9">
          <mxGeometry width="50" height="50" relative="1" as="geometry">
            <mxPoint x="770" y="120" as="sourcePoint" />
            <mxPoint x="850" y="260" as="targetPoint" />
          </mxGeometry>
        </mxCell>
        <mxCell id="fAqofK01B5dOXCcF90-Q-18" value="券金q" style="text;html=1;strokeColor=none;fillColor=none;align=center;verticalAlign=middle;whiteSpace=wrap;rounded=0;rotation=55;" vertex="1" parent="1">
          <mxGeometry x="780" y="160" width="80" height="30" as="geometry" />
        </mxCell>
      </root>
    </mxGraphModel>
  </diagram>
</mxfile>
